<?xml version="1.0" encoding="UTF-8"?>
<svg xmlns="http://www.w3.org/2000/svg" xmlns:xlink="http://www.w3.org/1999/xlink" width="555pt" height="113pt" viewBox="0 0 555 113" version="1.1">
<g id="surface1">
<path style=" stroke:none;fill-rule:evenodd;fill:rgb(92.89856%,10.998535%,14.099121%);fill-opacity:1;" d="M 0.554688 0.980469 L 267.59375 0.980469 L 236.460938 112.699219 L 0.554688 112.699219 L 0.554688 0.980469 "/>
<path style=" stroke:none;fill-rule:evenodd;fill:rgb(17.999268%,18.798828%,57.299805%);fill-opacity:1;" d="M 554.320313 0.980469 L 522.804688 112.699219 L 236.460938 112.699219 L 267.59375 0.980469 L 554.320313 0.980469 "/>
<path style=" stroke:none;fill-rule:nonzero;fill:rgb(100%,100%,100%);fill-opacity:1;" d="M 307.644531 54.027344 C 308.246094 50.363281 308.492188 47.238281 308.355469 44.632813 C 308.222656 42.039063 307.804688 39.890625 307.101563 38.195313 C 306.402344 36.480469 305.488281 35.140625 304.375 34.1875 C 303.269531 33.210938 302.039063 32.53125 300.714844 32.125 C 299.359375 31.730469 297.980469 31.515625 296.539063 31.539063 C 293.796875 31.515625 291.152344 32.109375 288.601563 33.242188 C 286.042969 34.378906 283.621094 36.15625 281.371094 38.535156 C 279.089844 40.929688 277 44.007813 275.105469 47.785156 C 273.183594 51.542969 271.542969 56.050781 270.101563 61.308594 C 268.660156 66.574219 267.820313 71.144531 267.625 74.960938 C 267.421875 78.804688 267.777344 81.964844 268.6875 84.414063 C 269.570313 86.890625 270.972656 88.738281 272.847656 89.898438 C 274.695313 91.085938 276.976563 91.671875 279.660156 91.671875 C 281.964844 91.714844 284.230469 91.355469 286.417969 90.640625 C 288.632813 89.921875 290.746094 88.667969 292.828125 86.859375 C 294.882813 85.074219 296.863281 82.542969 298.78125 79.324219 C 300.691406 76.109375 302.496094 72.015625 304.226563 67.066406 C 301.035156 67.066406 297.867188 67.066406 294.695313 67.066406 C 293.902344 69.421875 292.925781 71.460938 291.796875 73.160156 C 290.636719 74.871094 289.386719 76.195313 288.050781 77.125 C 286.707031 78.058594 285.347656 78.511719 283.960938 78.53125 C 282.042969 78.53125 280.601563 77.847656 279.625 76.507813 C 278.625 75.171875 278.140625 73.207031 278.128906 70.644531 C 278.117188 68.089844 278.597656 64.972656 279.589844 61.308594 C 280.582031 57.644531 281.78125 54.558594 283.160156 52.035156 C 284.542969 49.507813 286.074219 47.578125 287.769531 46.269531 C 289.445313 44.960938 291.230469 44.292969 293.128906 44.292969 C 294.382813 44.277344 295.433594 44.5625 296.28125 45.167969 C 297.125 45.785156 297.695313 46.800781 298.0625 48.21875 C 298.40625 49.648438 298.421875 51.582031 298.15625 54.027344 C 301.3125 54.027344 304.46875 54.027344 307.644531 54.027344 Z M 308.828125 61.308594 C 307.453125 66.574219 306.71875 71.144531 306.59375 74.960938 C 306.464844 78.804688 306.910156 81.964844 307.925781 84.414063 C 308.9375 86.890625 310.410156 88.738281 312.398438 89.898438 C 314.382813 91.085938 316.792969 91.671875 319.597656 91.671875 C 322.402344 91.671875 325.109375 91.085938 327.679688 89.898438 C 330.261719 88.738281 332.699219 86.890625 334.949219 84.414063 C 337.21875 81.964844 339.269531 78.804688 341.105469 74.960938 C 342.953125 71.144531 344.523438 66.574219 345.859375 61.308594 C 347.148438 56.058594 347.835938 51.550781 347.882813 47.792969 C 347.960938 44.007813 347.480469 40.9375 346.453125 38.535156 C 345.445313 36.15625 343.953125 34.378906 341.988281 33.242188 C 340.054688 32.109375 337.691406 31.515625 334.9375 31.539063 C 332.191406 31.515625 329.53125 32.109375 326.992188 33.242188 C 324.453125 34.378906 322.074219 36.15625 319.832031 38.535156 C 317.578125 40.929688 315.527344 44.007813 313.679688 47.792969 C 311.835938 51.550781 310.199219 56.050781 308.828125 61.308594 Z M 318.339844 61.308594 C 319.285156 57.644531 320.445313 54.558594 321.789063 52.035156 C 323.140625 49.507813 324.671875 47.578125 326.328125 46.269531 C 327.984375 44.960938 329.789063 44.292969 331.683594 44.292969 C 333.582031 44.292969 335.019531 44.960938 336.007813 46.269531 C 337.023438 47.578125 337.53125 49.507813 337.605469 52.035156 C 337.675781 54.558594 337.25 57.644531 336.324219 61.308594 C 335.402344 64.972656 334.265625 68.085938 332.902344 70.644531 C 331.546875 73.203125 330.039063 75.171875 328.34375 76.507813 C 326.671875 77.847656 324.871094 78.53125 322.949219 78.53125 C 321.035156 78.53125 319.558594 77.847656 318.566406 76.507813 C 317.574219 75.171875 317.039063 73.207031 316.996094 70.644531 C 316.949219 68.089844 317.394531 64.972656 318.339844 61.308594 Z M 387.851563 89.539063 C 390.945313 89.539063 394.039063 89.539063 397.136719 89.539063 C 398.613281 83.121094 400.085938 76.738281 401.546875 70.375 C 403.007813 64.039063 404.460938 57.714844 405.90625 51.425781 C 406.746094 47.792969 407.136719 44.738281 407.082031 42.261719 C 407.054688 39.789063 406.671875 37.804688 405.957031 36.332031 C 405.273438 34.847656 404.347656 33.785156 403.1875 33.117188 C 402.019531 32.46875 400.734375 32.140625 399.320313 32.15625 C 396.78125 32.171875 394.34375 33.078125 392.007813 34.878906 C 389.667969 36.671875 387.457031 39.222656 385.398438 42.539063 C 385.445313 40.421875 385.230469 38.605469 384.765625 37.042969 C 384.316406 35.511719 383.550781 34.304688 382.507813 33.457031 C 381.449219 32.597656 380.042969 32.171875 378.277344 32.15625 C 376.933594 32.171875 375.621094 32.449219 374.300781 32.972656 C 372.972656 33.53125 371.71875 34.234375 370.496094 35.148438 C 369.292969 36.046875 368.210938 37.066406 367.195313 38.175781 C 366.203125 39.296875 365.351563 40.4375 364.632813 41.605469 C 364.585938 41.605469 364.5625 41.605469 364.539063 41.605469 C 365.191406 38.929688 365.84375 36.257813 366.496094 33.59375 C 363.554688 33.59375 360.609375 33.59375 357.667969 33.59375 C 355.394531 42.777344 353.105469 52.027344 350.808594 61.316406 C 348.496094 70.660156 346.164063 80.082031 343.824219 89.546875 C 346.917969 89.546875 350.011719 89.546875 353.132813 89.546875 C 354.386719 84.414063 355.636719 79.296875 356.882813 74.207031 C 358.121094 69.121094 359.359375 64.070313 360.59375 59.015625 C 361.128906 56.835938 361.789063 54.921875 362.515625 53.3125 C 363.296875 51.710938 364.105469 50.363281 365.011719 49.304688 C 365.921875 48.234375 366.855469 47.457031 367.828125 46.917969 C 368.792969 46.402344 369.769531 46.148438 370.753906 46.148438 C 371.40625 46.132813 372.015625 46.292969 372.59375 46.578125 C 373.167969 46.886719 373.625 47.394531 374.003906 48.117188 C 374.363281 48.824219 374.558594 49.804688 374.597656 51.035156 C 374.636719 52.28125 374.410156 53.8125 373.988281 55.683594 C 372.644531 61.277344 371.292969 66.902344 369.9375 72.53125 C 368.582031 78.179688 367.21875 83.851563 365.851563 89.546875 C 368.945313 89.546875 372.039063 89.546875 375.132813 89.546875 C 376.351563 84.414063 377.566406 79.296875 378.773438 74.207031 C 379.980469 69.121094 381.179688 64.070313 382.378906 59.015625 C 382.894531 56.835938 383.539063 54.921875 384.285156 53.3125 C 385.023438 51.710938 385.851563 50.363281 386.726563 49.304688 C 387.605469 48.234375 388.53125 47.457031 389.5 46.917969 C 390.4375 46.402344 391.386719 46.148438 392.347656 46.148438 C 393.023438 46.132813 393.660156 46.292969 394.265625 46.578125 C 394.84375 46.894531 395.324219 47.394531 395.710938 48.117188 C 396.074219 48.824219 396.300781 49.804688 396.324219 51.035156 C 396.371094 52.28125 396.183594 53.820313 395.746094 55.683594 C 394.441406 61.277344 393.128906 66.902344 391.820313 72.523438 C 390.503906 78.179688 389.179688 83.851563 387.851563 89.539063 Z M 418.746094 61.625 C 419.347656 58.960938 420.113281 56.628906 421.023438 54.621094 C 421.933594 52.613281 422.941406 50.925781 424.035156 49.585938 C 425.132813 48.238281 426.265625 47.238281 427.453125 46.546875 C 428.636719 45.878906 429.792969 45.53125 430.945313 45.53125 C 432.121094 45.53125 433.152344 45.878906 434.035156 46.546875 C 434.917969 47.238281 435.609375 48.234375 436.105469 49.585938 C 436.628906 50.925781 436.882813 52.613281 436.898438 54.621094 C 436.914063 56.628906 436.621094 58.960938 436.058594 61.625 C 435.449219 64.289063 434.714844 66.648438 433.8125 68.660156 C 432.910156 70.683594 431.90625 72.382813 430.777344 73.769531 C 429.675781 75.132813 428.527344 76.15625 427.332031 76.855469 C 426.132813 77.546875 424.941406 77.894531 423.75 77.894531 C 422.585938 77.894531 421.570313 77.546875 420.683594 76.855469 C 419.796875 76.15625 419.101563 75.132813 418.609375 73.769531 C 418.117188 72.382813 417.871094 70.683594 417.867188 68.660156 C 417.859375 66.648438 418.148438 64.289063 418.746094 61.625 Z M 398.613281 110.835938 C 401.726563 110.835938 404.84375 110.835938 407.984375 110.835938 C 409.027344 106.207031 410.074219 101.566406 411.109375 96.957031 C 412.144531 92.355469 413.179688 87.761719 414.210938 83.175781 C 414.234375 83.175781 414.257813 83.175781 414.308594 83.175781 C 414.53125 84.890625 415 86.375 415.765625 87.636719 C 416.503906 88.90625 417.523438 89.898438 418.777344 90.609375 C 420.039063 91.300781 421.542969 91.65625 423.269531 91.671875 C 425.519531 91.65625 427.777344 90.917969 429.992188 89.492188 C 432.210938 88.039063 434.339844 85.984375 436.335938 83.296875 C 438.347656 80.640625 440.164063 77.433594 441.746094 73.714844 C 443.34375 70.027344 444.652344 65.878906 445.640625 61.308594 C 446.699219 56.414063 447.191406 52.136719 447.164063 48.496094 C 447.117188 44.839844 446.644531 41.820313 445.710938 39.398438 C 444.75 36.988281 443.445313 35.171875 441.773438 33.972656 C 440.078125 32.753906 438.105469 32.15625 435.832031 32.15625 C 434.574219 32.125 433.324219 32.363281 432.074219 32.824219 C 430.820313 33.300781 429.496094 34.195313 428.101563 35.496094 C 426.714844 36.773438 425.171875 38.644531 423.46875 41.089844 C 423.421875 41.089844 423.394531 41.089844 423.371094 41.089844 C 423.933594 38.589844 424.496094 36.089844 425.058594 33.601563 C 422.117188 33.601563 419.175781 33.601563 416.230469 33.601563 C 413.355469 46.207031 410.457031 58.914063 407.53125 71.730469 C 404.585938 84.660156 401.609375 97.695313 398.613281 110.835938 Z M 444.550781 89.539063 C 447.644531 89.539063 450.738281 89.539063 453.835938 89.539063 C 454.699219 85.460938 455.566406 81.367188 456.425781 77.316406 C 457.28125 73.261719 458.140625 69.21875 458.992188 65.179688 C 459.765625 61.539063 460.769531 58.449219 461.972656 55.898438 C 463.171875 53.355469 464.613281 51.40625 466.261719 50.050781 C 467.898438 48.710938 469.761719 48.039063 471.859375 48.015625 C 472.703125 48.015625 473.527344 48.1875 474.28125 48.496094 C 475.0625 48.792969 475.820313 49.195313 476.5625 49.671875 C 477.742188 43.984375 478.914063 38.320313 480.085938 32.664063 C 479.597656 32.46875 479.078125 32.316406 478.496094 32.253906 C 477.9375 32.191406 477.390625 32.15625 476.867188 32.15625 C 475.574219 32.15625 474.378906 32.394531 473.273438 32.878906 C 472.140625 33.371094 471.050781 34.109375 470.007813 35.101563 C 468.957031 36.105469 467.878906 37.375 466.761719 38.914063 C 465.640625 40.460938 464.464844 42.285156 463.179688 44.398438 C 463.128906 44.398438 463.105469 44.398438 463.082031 44.398438 C 463.847656 40.789063 464.609375 37.195313 465.371094 33.601563 C 462.429688 33.601563 459.484375 33.601563 456.566406 33.601563 C 454.59375 42.785156 452.605469 52.035156 450.613281 61.316406 C 448.605469 70.667969 446.582031 80.078125 444.550781 89.539063 Z M 500.496094 66.648438 C 500.125 68.535156 499.59375 70.230469 498.910156 71.714844 C 498.25 73.222656 497.457031 74.539063 496.582031 75.648438 C 495.703125 76.769531 494.757813 77.6875 493.769531 78.433594 C 492.789063 79.171875 491.789063 79.71875 490.765625 80.09375 C 489.746094 80.457031 488.785156 80.640625 487.839844 80.640625 C 486.671875 80.640625 485.714844 80.3125 484.964844 79.703125 C 484.214844 79.09375 483.714844 78.203125 483.46875 77.039063 C 483.222656 75.863281 483.246094 74.421875 483.589844 72.730469 C 483.929688 71.066406 484.40625 69.730469 484.964844 68.710938 C 485.519531 67.699219 486.222656 66.925781 487.050781 66.402344 C 487.878906 65.894531 488.84375 65.550781 489.964844 65.394531 C 491.789063 65.085938 493.644531 64.765625 495.496094 64.449219 C 496.441406 64.304688 497.40625 64.078125 498.390625 63.75 C 499.375 63.417969 500.378906 62.863281 501.410156 62.046875 C 501.105469 63.585938 500.800781 65.117188 500.496094 66.648438 Z M 488.949219 50.496094 C 489.648438 48.609375 490.339844 47.085938 490.996094 45.984375 C 491.652344 44.863281 492.324219 44.039063 493.011719 43.484375 C 493.695313 42.953125 494.4375 42.605469 495.21875 42.4375 C 495.992188 42.285156 496.867188 42.214844 497.847656 42.230469 C 499.601563 42.230469 500.96875 42.476563 501.929688 42.960938 C 502.863281 43.429688 503.484375 44.175781 503.746094 45.15625 C 504.035156 46.117188 504.007813 47.363281 503.714844 48.839844 C 503.421875 50.316406 503.070313 51.429688 502.679688 52.234375 C 502.296875 53.023438 501.785156 53.597656 501.15625 53.964844 C 500.558594 54.3125 499.769531 54.527344 498.804688 54.652344 C 495.460938 55.113281 492.117188 55.558594 488.773438 56 C 487.613281 56.144531 486.449219 56.382813 485.269531 56.761719 C 484.078125 57.144531 482.902344 57.722656 481.761719 58.46875 C 480.621094 59.207031 479.539063 60.238281 478.507813 61.507813 C 477.496094 62.777344 476.566406 64.363281 475.730469 66.296875 C 474.902344 68.21875 474.179688 70.550781 473.617188 73.253906 C 472.941406 76.546875 472.675781 79.355469 472.800781 81.695313 C 472.929688 84.027344 473.386719 85.929688 474.203125 87.398438 C 475.023438 88.863281 476.117188 89.953125 477.511719 90.640625 C 478.90625 91.332031 480.523438 91.664063 482.375 91.664063 C 483.445313 91.664063 484.59375 91.546875 485.839844 91.285156 C 487.109375 91.03125 488.394531 90.59375 489.738281 89.96875 C 491.054688 89.347656 492.367188 88.515625 493.675781 87.453125 C 494.957031 86.390625 496.140625 85.082031 497.257813 83.496094 C 497.105469 84.492188 496.96875 85.5 496.878906 86.515625 C 496.789063 87.523438 496.746094 88.53125 496.695313 89.539063 C 499.789063 89.539063 502.882813 89.539063 506.027344 89.539063 C 505.9375 88.128906 506.011719 86.484375 506.183594 84.613281 C 506.378906 82.742188 506.703125 80.558594 507.164063 78.101563 C 508.074219 73.429688 508.980469 68.78125 509.886719 64.132813 C 510.789063 59.507813 511.691406 54.898438 512.589844 50.296875 C 513.019531 48.210938 513.261719 46.238281 513.363281 44.363281 C 513.441406 42.492188 513.320313 40.773438 512.933594 39.210938 C 512.566406 37.65625 511.875 36.296875 510.921875 35.171875 C 509.925781 34.03125 508.597656 33.128906 506.878906 32.5 C 505.164063 31.867188 503.003906 31.539063 500.398438 31.539063 C 498.898438 31.515625 497.390625 31.640625 495.882813 31.886719 C 494.328125 32.125 492.84375 32.609375 491.363281 33.308594 C 489.878906 34.03125 488.46875 35.0625 487.078125 36.464844 C 485.71875 37.851563 484.433594 39.683594 483.242188 41.976563 C 482.078125 44.253906 481.015625 47.101563 480.097656 50.496094 C 483.03125 50.496094 485.992188 50.496094 488.949219 50.496094 "/>
<path style=" stroke:none;fill-rule:nonzero;fill:rgb(100%,100%,100%);fill-opacity:1;" d="M 113.8125 28.121094 C 119.035156 28.121094 124.261719 28.136719 129.5 28.121094 C 130.265625 28.121094 130.976563 28.234375 131.660156 28.527344 C 132.332031 28.816406 132.882813 29.320313 133.3125 30.015625 C 133.746094 30.722656 133.953125 31.691406 133.96875 32.925781 C 133.988281 34.152344 133.71875 35.714844 133.140625 37.589844 C 132.597656 39.371094 131.933594 40.882813 131.210938 42.125 C 130.484375 43.367188 129.703125 44.363281 128.894531 45.125 C 128.085938 45.890625 127.28125 46.441406 126.488281 46.78125 C 125.691406 47.125 124.953125 47.285156 124.246094 47.285156 C 118.800781 47.285156 113.351563 47.285156 107.902344 47.285156 C 109.875 40.898438 111.84375 34.5 113.8125 28.121094 Z M 98.894531 36.582031 L 0.554688 36.582031 L 0.554688 45.808594 L 96.039063 45.808594 L 94.457031 50.929688 L 0.554688 50.882813 L 0.554688 60.15625 L 91.601563 60.15625 L 90.019531 65.28125 L 0.554688 65.28125 L 0.554688 74.507813 L 87.167969 74.507813 L 85.265625 80.65625 L 0.585938 80.65625 L 0.574219 89.875 L 82.410156 89.878906 L 94.773438 89.878906 L 103.996094 61.8125 C 108.914063 61.8125 113.835938 61.824219 118.765625 61.8125 C 119.734375 61.808594 120.550781 61.996094 121.234375 62.410156 C 121.898438 62.808594 122.386719 63.492188 122.667969 64.488281 C 122.945313 65.46875 122.980469 66.839844 122.761719 68.589844 C 122.546875 70.320313 122.042969 72.53125 121.226563 75.195313 C 120.617188 77.191406 120.097656 78.902344 119.667969 80.371094 C 119.242188 81.835938 118.902344 83.128906 118.648438 84.21875 C 118.390625 85.324219 118.199219 86.328125 118.089844 87.21875 C 117.980469 88.128906 117.914063 89.011719 117.9375 89.878906 C 122.4375 89.878906 126.949219 89.878906 131.464844 89.878906 C 131.238281 88.886719 131.179688 87.648438 131.3125 86.183594 C 131.441406 84.71875 131.6875 83.15625 132.027344 81.53125 C 132.363281 79.910156 132.746094 78.351563 133.144531 76.882813 C 133.535156 75.4375 133.878906 74.234375 134.179688 73.265625 C 134.648438 71.742188 135.109375 70.132813 135.550781 68.390625 C 135.996094 66.65625 136.332031 64.949219 136.605469 63.246094 C 136.886719 61.527344 137.015625 59.925781 137.003906 58.46875 C 136.988281 57.011719 136.753906 55.785156 136.316406 54.789063 C 135.882813 53.792969 135.179688 53.148438 134.191406 52.84375 C 134.214844 52.773438 134.238281 52.703125 134.257813 52.628906 C 137.289063 51.074219 139.863281 48.800781 141.980469 45.765625 C 144.085938 42.738281 145.828125 38.902344 147.238281 34.292969 C 147.71875 32.714844 148.144531 31.015625 148.484375 29.171875 C 148.828125 27.320313 148.96875 25.5 148.933594 23.667969 C 148.894531 21.847656 148.574219 20.203125 147.933594 18.675781 C 147.308594 17.183594 146.246094 15.980469 144.789063 15.074219 C 143.34375 14.171875 141.382813 13.675781 138.882813 13.671875 C 127.902344 13.65625 116.933594 13.671875 105.976563 13.671875 Z M 171.445313 72.730469 C 169.894531 75.195313 168.144531 77.074219 166.191406 78.332031 C 164.242188 79.582031 162.128906 80.242188 159.867188 80.226563 C 157.957031 80.210938 156.460938 79.730469 155.34375 78.832031 C 154.234375 77.941406 153.441406 76.78125 152.984375 75.375 C 152.515625 73.945313 152.320313 72.460938 152.378906 70.875 C 152.4375 69.285156 152.679688 67.800781 153.101563 66.40625 C 153.125 66.335938 153.144531 66.265625 153.167969 66.191406 C 164.125 66.191406 175.078125 66.191406 186.035156 66.191406 C 186.207031 65.628906 186.378906 65.0625 186.550781 64.488281 C 188.730469 57.273438 189.773438 51.140625 189.710938 46.066406 C 189.644531 41.007813 188.394531 37.152344 185.964844 34.492188 C 183.527344 31.832031 179.871094 30.480469 174.964844 30.464844 C 171.582031 30.449219 168.339844 31.050781 165.226563 32.230469 C 162.125 33.40625 159.1875 35.242188 156.460938 37.710938 C 153.714844 40.195313 151.222656 43.378906 148.964844 47.269531 C 146.710938 51.144531 144.742188 55.78125 143.097656 61.175781 C 141.457031 66.546875 140.589844 71.210938 140.472656 75.105469 C 140.355469 79.007813 140.921875 82.207031 142.148438 84.695313 C 143.378906 87.199219 145.191406 89.050781 147.582031 90.238281 C 149.988281 91.433594 152.882813 92.015625 156.285156 92.023438 C 159.714844 92.03125 163.035156 91.371094 166.25 90.039063 C 169.453125 88.710938 172.507813 86.636719 175.394531 83.785156 C 178.296875 80.925781 180.972656 77.25 183.429688 72.730469 C 179.425781 72.730469 175.4375 72.730469 171.445313 72.730469 Z M 156.550781 55.089844 C 156.570313 55.019531 156.597656 54.949219 156.613281 54.875 C 156.695313 54.574219 156.972656 53.953125 157.4375 53.027344 C 157.914063 52.074219 158.550781 51.003906 159.363281 49.792969 C 160.179688 48.582031 161.191406 47.398438 162.34375 46.25 C 163.503906 45.089844 164.8125 44.132813 166.296875 43.367188 C 167.761719 42.605469 169.382813 42.171875 171.152344 42.171875 C 172.773438 42.171875 174.101563 42.515625 175.101563 43.183594 C 176.097656 43.847656 176.828125 44.695313 177.328125 45.746094 C 177.828125 46.796875 178.140625 47.898438 178.269531 49.050781 C 178.398438 50.230469 178.414063 51.332031 178.316406 52.367188 C 178.222656 53.394531 178.066406 54.230469 177.859375 54.875 C 177.835938 54.945313 177.816406 55.019531 177.792969 55.089844 C 170.703125 55.089844 163.625 55.089844 156.550781 55.089844 Z M 203.183594 61.492188 C 204.003906 58.769531 205.015625 56.363281 206.195313 54.300781 C 207.375 52.238281 208.664063 50.511719 210.050781 49.125 C 211.4375 47.734375 212.867188 46.699219 214.351563 45.992188 C 215.835938 45.289063 217.285156 44.945313 218.707031 44.945313 C 220.113281 44.945313 221.355469 45.289063 222.402344 45.992188 C 223.449219 46.699219 224.242188 47.738281 224.800781 49.125 C 225.363281 50.515625 225.609375 52.238281 225.554688 54.300781 C 225.5 56.363281 225.066406 58.769531 224.253906 61.492188 C 223.4375 64.226563 222.429688 66.621094 221.257813 68.679688 C 220.074219 70.746094 218.796875 72.484375 217.394531 73.886719 C 216 75.28125 214.582031 76.320313 213.113281 77.023438 C 211.640625 77.730469 210.1875 78.085938 208.777344 78.085938 C 207.347656 78.085938 206.109375 77.734375 205.042969 77.023438 C 203.984375 76.324219 203.164063 75.285156 202.613281 73.886719 C 202.0625 72.488281 201.816406 70.75 201.875 68.679688 C 201.933594 66.621094 202.363281 64.226563 203.183594 61.492188 Z M 215.769531 89.878906 C 219.386719 89.878906 223.007813 89.878906 226.644531 89.878906 C 230.511719 76.90625 234.371094 63.957031 238.222656 51.035156 C 242.0625 38.132813 245.902344 25.253906 249.734375 12.390625 C 245.992188 12.390625 242.265625 12.390625 238.550781 12.390625 C 237.199219 16.929688 235.839844 21.46875 234.488281 25.996094 C 233.132813 30.527344 231.773438 35.082031 230.417969 39.613281 C 230.375 39.613281 230.332031 39.613281 230.289063 39.613281 C 230.082031 37.894531 229.542969 36.402344 228.671875 35.128906 C 227.804688 33.867188 226.632813 32.867188 225.132813 32.167969 C 223.636719 31.46875 221.84375 31.101563 219.738281 31.101563 C 217.035156 31.101563 214.316406 31.847656 211.589844 33.28125 C 208.859375 34.722656 206.230469 36.800781 203.707031 39.480469 C 201.164063 42.175781 198.859375 45.414063 196.769531 49.164063 C 194.667969 52.929688 192.886719 57.148438 191.488281 61.8125 C 189.984375 66.816406 189.171875 71.195313 189.003906 74.976563 C 188.839844 78.746094 189.246094 81.890625 190.222656 84.425781 C 191.195313 86.949219 192.644531 88.847656 194.570313 90.109375 C 196.5 91.378906 198.796875 92.011719 201.464844 92.023438 C 203.179688 92.027344 204.898438 91.792969 206.671875 91.257813 C 208.433594 90.726563 210.253906 89.761719 212.101563 88.398438 C 213.949219 87.035156 215.84375 85.140625 217.789063 82.6875 C 217.832031 82.6875 217.875 82.6875 217.917969 82.6875 C 217.199219 85.09375 216.484375 87.492188 215.769531 89.878906 "/>
</g>
</svg>
